<?xml version="1.0" encoding="utf-8"?>
<!-- Generator: Adobe Illustrator 24.2.3, SVG Export Plug-In . SVG Version: 6.00 Build 0)  -->
<svg version="1.1" id="Vrstva_1" xmlns="http://www.w3.org/2000/svg" xmlns:xlink="http://www.w3.org/1999/xlink" x="0px" y="0px"
	 viewBox="0 0 1440 1440" style="enable-background:new 0 0 1440 1440;" xml:space="preserve">
<style type="text/css">
	.st0{fill:none;}
	.st1{clip-path:url(#SVGID_2_);}
	.st2{clip-path:url(#SVGID_4_);}
	.st3{fill:#FFFFFF;}
</style>
<g id="Group" transform="translate(0 -0.682)">
	<g id="Group_91">
		<path id="Fill_1" d="M454.83,354.24c-5.78,0.27-10.77-4.04-11.34-9.8l-3.82-85.46c0.05-5.92,4.9-10.68,10.82-10.63
			c0.03,0,0.05,0,0.08,0c5.92-0.4,11.11,3.92,11.8,9.81l3.81,85.46c-0.06,5.92-4.9,10.68-10.83,10.62c-0.02,0-0.04,0-0.06,0
			C455.14,354.23,454.99,354.23,454.83,354.24"/>
		<path id="Fill_3" d="M330.58,410.96c-2.84,0.01-5.56-1.12-7.56-3.13l-62.18-62.38c-4.02-4.01-4.03-10.53-0.02-14.55
			c0.06-0.06,0.11-0.11,0.17-0.17c4.21-4.01,10.84-3.95,14.97,0.15l62.17,62.37c4.02,4.01,4.04,10.52,0.03,14.55
			c-0.06,0.06-0.11,0.11-0.17,0.17C336,409.9,333.35,410.96,330.58,410.96"/>
		<path id="Fill_5" d="M173.71,547.12c-6-0.16-10.74-5.13-10.6-11.13c-0.17-6.01,4.55-11.03,10.56-11.21l88.66-0.36h0.05
			c5.99,0.16,10.73,5.13,10.6,11.12c0.17,6.01-4.55,11.03-10.56,11.21l-88.67,0.36H173.71z"/>
		<g id="Group_9" transform="translate(376.676)">
			<path id="Clip_8-2" class="st0" d="M726.5,242.48h65.4v84.44h-65.4V242.48z"/>
			<g>
				<defs>
					<rect id="SVGID_1_" x="726.5" y="242.48" width="65.4" height="84.44"/>
				</defs>
				<clipPath id="SVGID_2_">
					<use xlink:href="#SVGID_1_"  style="overflow:visible;"/>
				</clipPath>
				<g id="Group_9-2" class="st1">
					<path id="Fill_7" d="M737.21,326.92c-2.12,0.01-4.19-0.61-5.97-1.77c-4.76-3.03-6.17-9.36-3.13-14.12
						c0.07-0.11,0.14-0.21,0.21-0.32l43.97-63.62c3.38-4.8,9.96-6.05,14.87-2.84c4.76,3.03,6.17,9.36,3.13,14.12
						c-0.07,0.11-0.14,0.21-0.21,0.32l-43.97,63.62C744.08,325.22,740.75,326.94,737.21,326.92"/>
				</g>
			</g>
		</g>
		<g id="Group_12" transform="translate(408.572 60.108)">
			<path id="Clip_11-2" class="st0" d="M774.71,330.83h93.47v54.77h-93.47V330.83z"/>
			<g>
				<defs>
					<rect id="SVGID_3_" x="774.71" y="330.83" width="93.47" height="54.77"/>
				</defs>
				<clipPath id="SVGID_4_">
					<use xlink:href="#SVGID_3_"  style="overflow:visible;"/>
				</clipPath>
				<g id="Group_12-2" class="st2">
					<path id="Fill_10" d="M785.21,385.6c-4.13-0.01-7.86-2.44-9.54-6.21c-2.42-5.32-0.11-11.59,5.18-14.06l72.49-33.54
						c5.23-2.41,11.43-0.11,13.83,5.12c0.02,0.04,0.04,0.09,0.06,0.13c2.42,5.32,0.11,11.59-5.18,14.06l-72.49,33.53
						C788.2,385.27,786.71,385.6,785.21,385.6"/>
				</g>
			</g>
		</g>
	</g>
</g>
</svg>
