<?xml version="1.0" encoding="utf-8"?>
<!-- Generator: Adobe Illustrator 24.2.3, SVG Export Plug-In . SVG Version: 6.00 Build 0)  -->
<svg version="1.1" id="Vrstva_1" xmlns="http://www.w3.org/2000/svg" xmlns:xlink="http://www.w3.org/1999/xlink" x="0px" y="0px"
	 viewBox="0 0 1440 1440" style="enable-background:new 0 0 1440 1440;" xml:space="preserve">
<style type="text/css">
	.st0{fill:none;}
	.st1{clip-path:url(#SVGID_2_);}
	.st2{clip-path:url(#SVGID_4_);}
	.st3{fill:#FFFFFF;}
</style>
<g id="Group" transform="translate(0 -0.682)">
	<g id="Group_91">
		<g id="Group_12" transform="translate(408.572 60.108)">
			<path id="Clip_11-2" class="st0" d="M774.71,330.83h93.47v54.77h-93.47V330.83z"/>
		</g>
		<path id="Fill_13" class="st3" d="M930.7,787.99c-33.21,5.64-74.93-9.98-78.39-33.84c-3.45-23.86,22.15-77.64,22.15-77.64
			l-74.19,1.08l-10.01,0.43c-66.87,7.82-81.67-56.5-101.65-78.1c-19.99-21.59,33.62-12.17,33.62-12.17
			c-16.65-49.62-68.54-81.03-84.32-93.77c-5.59-4.51,9.87-11.71,9.87-11.71c109.31-21.25,143.71,68.54,147.18,78.14
			c36.42-19.85,72.88-39.62,109.38-59.31c23.08-12.4,44.61-26.44,71.8-19.71c21.56,5.42,39.03,21.19,46.61,42.09
			c8.26,23.02,2.54,50.87-2.65,73.9c-6.8,28.71-15.66,56.88-26.52,84.31c-8.54,22.28-17.84,44.25-26.81,66.35
			c-7.13,17.58-15.24,36.39-36.09,39.94"/>
		<path id="Fill_15" d="M916.86,796.71c-21.01,0-42.17-6.24-56.6-16.67c-10.41-7.53-16.7-16.87-18.17-26.99
			c-1.19-8.15,0.25-19.58,4.27-33.95c3.37-11.61,7.43-23.02,12.16-34.14l-67.62,1.25c-3.92,0.44-7.86,0.67-11.81,0.68
			c-20.65,0.36-40.61-7.39-55.63-21.57c-13.43-12.35-22.63-27.87-30.02-40.35c-3.76-6.97-8.17-13.56-13.16-19.71
			c-9.13-9.76-8.05-17.3-5.53-21.9c3.55-6.49,12.22-9.77,25.81-9.77c1.39,0,2.85,0.03,4.34,0.1
			c-16.58-30.56-46.68-52.39-64.67-65.44l-0.05-0.03c-4.18-3.03-7.32-5.32-9.74-7.25c-3.66-2.79-5.57-7.31-5.02-11.88
			c1.02-8.22,9.86-13.93,17.09-17.25c0.76-0.36,1.57-0.62,2.4-0.78c11.19-2.2,22.55-3.33,33.95-3.38
			c18.45-0.17,36.74,3.43,53.76,10.57c12.92,5.53,24.81,13.2,35.17,22.7c13.31,12.35,24.19,27.09,32.08,43.44
			c29.7-16.01,64.81-34.89,99.9-53.56l6.4-3.44c17.36-9.42,35.31-19.15,56.39-19.15c5.66,0.01,11.29,0.7,16.78,2.06
			c24.93,6.21,45.19,24.31,54.15,48.39c9.69,26.69,2.47,58.33-2.3,79.28c-6.93,29.04-15.98,57.53-27.08,85.25
			c-5.99,15.44-12.4,30.92-18.62,45.9l-0.25,0.61l-0.48,1.16v0.02c-2.52,6.06-5.12,12.32-7.65,18.5
			c-7.17,17.49-16.99,41.44-44.18,46.01C927.62,796.29,922.24,796.72,916.86,796.71z M874.52,664h0.15
			c5.73-0.03,10.4,4.58,10.43,10.31c0.01,1.56-0.34,3.11-1.01,4.52c-9.42,19.58-23.54,56.23-21.35,71.23
			c0.83,5.67,5.79,10.32,9.8,13.22c10.8,7.82,27.89,12.67,44.59,12.68c4.12,0.01,8.23-0.31,12.3-0.98
			c14.61-2.46,20.95-15.39,28.33-33.39c2.06-5,4.15-10.06,6.18-14.94l0.18-0.44l1.82-4.4c6.79-16.32,12.89-31.04,18.69-46.02
			c10.73-26.78,19.48-54.32,26.19-82.38c4.24-18.59,10.64-46.68,3.02-67.67c-6.53-17.56-21.3-30.77-39.47-35.31
			c-3.82-0.94-7.74-1.42-11.67-1.42c-15.92,0-30.1,7.68-46.51,16.58l-6.55,3.53c-34.81,18.52-69.1,36.95-109.86,58.93
			c-2.67,1.44-5.84,1.65-8.68,0.58c-2.84-1.06-5.08-3.31-6.12-6.15c-4.51-12.37-30.86-74.06-105.92-74.06
			c-9.17,0.04-18.32,0.87-27.34,2.49c0.21,0.14,0.42,0.3,0.63,0.45l0.15,0.11l0.02,0.01c22.31,16.17,63.82,46.28,79.09,91.32
			c1.81,5.44-1.13,11.32-6.57,13.14c-1.08,0.36-2.21,0.54-3.35,0.53c-0.59,0-1.18-0.05-1.77-0.15c-6.6-1.16-13.29-1.8-19.99-1.9
			c-0.51,0-1.02,0-1.5,0.02c4.78,6.36,9.12,13.03,13,19.97l0.01,0.02c14.34,24.23,30.6,51.7,67.76,51.7
			c3.23-0.01,6.46-0.2,9.67-0.58c0.25-0.03,0.51-0.05,0.77-0.06l10.07-0.43L874.52,664z"/>
		<path id="Fill_17" d="M914.37,705.95c-3.74,0.03-7.2-1.97-9.04-5.22c-0.53-0.88-9.39-14.8-37.76-12.41
			c-5.55,0.5-10.48-3.53-11.1-9.07c-0.41-5.54,3.74-10.36,9.27-10.77c0.02,0,0.05,0,0.07,0c42.87-3.6,57.08,21.85,57.66,22.93
			c2.53,4.79,0.7,10.73-4.09,13.27c-0.1,0.05-0.2,0.1-0.3,0.15C917.62,705.57,916.01,705.95,914.37,705.95"/>
		<path id="Fill_19" d="M866.54,762.68h-0.14c-5.63-0.13-10.09-4.8-9.96-10.44c0.44-30.75,8.32-51.63,23.42-62.07
			c17.55-12.14,37.43-4.67,38.26-4.34c5.24,2.09,7.85,7.99,5.85,13.28c-1.9,5.22-7.68,7.91-12.9,6.01
			c-0.02-0.01-0.04-0.01-0.06-0.02c-0.39-0.14-11.28-3.91-19.96,2.2c-9.1,6.42-14.09,22.06-14.42,45.23
			C876.61,758.1,872.11,762.62,866.54,762.68"/>
		<path id="Fill_21" d="M887.71,796.71c-1.67,0-3.31-0.41-4.78-1.2c-14.02-6.94-24.33-19.64-28.23-34.78
			c-9.72-37.12,18.09-82.04,19.28-83.93c2.97-4.83,9.29-6.33,14.11-3.36c0.07,0.05,0.15,0.09,0.22,0.14
			c4.85,3.21,6.25,9.7,3.17,14.62c-0.25,0.38-24.09,39.03-16.7,67.1c2.47,9.4,8.94,17.23,17.71,21.42
			c5.11,2.76,7.08,9.11,4.42,14.28c-1.75,3.49-5.32,5.7-9.23,5.7"/>
		<path id="Fill_23" d="M882.04,702.17c-4.37,0.02-8.29-2.68-9.83-6.77c-1.91-5.29,0.82-11.13,6.11-13.04
			c0.06-0.02,0.12-0.04,0.18-0.06l16.97-5.99c5.39-1.94,11.34,0.8,13.38,6.16c1.91,5.29-0.82,11.12-6.11,13.04
			c-0.06,0.02-0.12,0.04-0.19,0.07l-16.96,5.99C884.46,701.96,883.26,702.16,882.04,702.17"/>
		<path id="Fill_25" class="st3" d="M615.53,601.48c9.84,32.43,42.51,62.99,65.38,55.41c22.87-7.58,59.44-54.72,59.44-54.72
			l32.3,67.28l4.1,9.2c23,63.71,87.11,48.21,115.36,56.52c28.24,8.31-4.2-35.71-4.2-35.71c51.8-7.26,103.13,25.38,121.6,33.88
			c6.54,3.02,6.04-14.13,6.04-14.13c-30.01-107.94-125.67-98.67-135.8-97.5c1.4-41.68,2.72-83.36,3.94-125.06
			c0.75-26.34,3.63-52.01-14.56-73.48c-14.44-16.96-36.37-25.62-58.5-23.1c-24.27,2.87-46.6,20.5-64.85,35.49
			c-22.61,19-43.82,39.61-63.46,61.66c-16.08,17.67-31.55,35.89-47.28,53.88C622.52,565.39,609.33,581.12,615.53,601.48"/>
		<path id="Fill_27" d="M898.55,743.77c-3.06-0.05-6.1-0.53-9.02-1.43c-7.79-1.7-15.72-2.67-23.68-2.9h-0.02
			c-31.47-2.14-79.04-5.38-98.92-59.38l-3.99-8.81l-25.2-52.01c-7.92,9.21-16.39,17.93-25.35,26.13
			c-11.18,10.03-20.84,16.42-28.74,19.01c-3.48,1.13-7.12,1.71-10.77,1.69c-7.61-0.16-15.06-2.14-21.75-5.77
			c-20.38-10.5-39.05-33.75-46.44-57.87c-8.06-26.29,9.15-45.77,21.73-60c4.52-5.11,9.08-10.32,13.49-15.35l0.83-0.95l0.68-0.77
			c10.59-12.09,21.53-24.59,32.64-36.67c20.06-22.33,41.72-43.17,64.82-62.35c16.78-13.64,42.13-34.26,70.54-37.58
			c2.93-0.34,5.87-0.51,8.81-0.51c11.22,0.03,22.3,2.46,32.51,7.11c10.22,4.65,19.3,11.45,26.63,19.96
			c19.21,22.43,18.27,48.05,17.37,72.82l-0.25,7.28c-0.94,32.59-2.04,67.47-3.59,113.11c0.84-0.01,1.6-0.02,2.33-0.02
			c10.35,0.02,20.66,1.11,30.79,3.24c13.36,2.78,26.22,7.57,38.14,14.2c14.32,8.04,26.89,18.83,37.01,31.76
			c12.71,16.67,22.01,35.69,27.38,55.96c0.23,0.81,0.36,1.65,0.38,2.49c0.25,7.94-0.94,18.36-7.92,22.96
			c-2.12,1.4-4.6,2.14-7.14,2.15c-2.01-0.01-4-0.45-5.82-1.3c-3.04-1.39-6.91-3.37-10.95-5.45l-0.02-0.01
			c-19.84-10.18-53.03-27.21-88.05-28.28c7.9,13.99,9.51,24.49,4.78,31.2C908.74,741.68,903.75,744.06,898.55,743.77z
			 M740.03,589.69c0.37,0,0.74,0.02,1.11,0.06c3.59,0.39,6.73,2.59,8.32,5.82l36.67,76.33c0.1,0.25,0.2,0.48,0.28,0.71
			c15.18,41.64,50.06,43.99,80.84,46.07l0.22,0.01c7.94,0.35,15.85,1.22,23.67,2.63c-3.24-6.41-7.03-12.54-11.32-18.31
			c-3.42-4.6-2.46-11.1,2.15-14.52c1.42-1.05,3.07-1.72,4.82-1.96c5.6-0.77,11.24-1.15,16.88-1.14c10.12,0.05,20.2,1.13,30.1,3.22
			c9.41,1.98,18.66,4.63,27.69,7.92c14.79,5.55,29.2,12.06,43.14,19.48l0.06,0.03c0.27,0.14,0.55,0.29,0.89,0.46
			c-23.48-78.82-86.06-87.34-111.86-87.34c-4.17-0.01-8.33,0.21-12.47,0.67c-0.41,0.05-0.83,0.07-1.25,0.07
			c-5.77-0.02-10.44-4.71-10.42-10.48c0-0.09,0-0.18,0-0.27c1.28-37.54,2.74-81.2,3.98-124.33l0.25-7.44
			c0.82-22.7,1.54-42.32-12.4-58.6c-10.9-12.5-26.66-19.69-43.25-19.73c-2.1,0-4.21,0.12-6.3,0.35
			c-22.35,2.61-44.84,20.92-59.73,33.03c-22.31,18.54-43.24,38.69-62.63,60.28c-10.88,11.84-21.7,24.18-32.15,36.11l-0.83,0.95
			c-4.24,4.85-9.26,10.59-14.37,16.37c-12.95,14.64-21.77,26.09-17.45,40.21c5.68,18.52,20.84,37.64,36.05,45.46
			c3.72,2.05,7.87,3.23,12.12,3.45c1.43,0.01,2.86-0.2,4.22-0.64c14.54-4.78,41.28-33.78,54.72-50.95
			C733.77,591.16,736.81,589.68,740.03,589.69z"/>
		<path id="Fill_29" d="M743.41,618.97c-4.38,0.02-8.33-2.63-9.98-6.68c-11.1-27.54-28.92-28.86-29.67-28.9
			c-5.82-0.27-10.36-5.13-10.24-10.95c0.2-5.71,4.91-10.23,10.62-10.19h0.16c1.32,0.02,32.47,0.96,49.09,42.26
			c2.14,5.41-0.51,11.53-5.91,13.67c-0.04,0.02-0.08,0.03-0.12,0.05C746.09,618.71,744.75,618.97,743.41,618.97"/>
		<path id="Fill_31" d="M677.37,653c-5.75-0.02-10.39-4.71-10.37-10.46c0.02-3.87,2.17-7.4,5.6-9.19
			c20.7-10.79,32.51-22.45,34.11-33.73c1.55-10.89-7.08-19.31-7.17-19.39c-4.12-3.95-4.32-10.48-0.44-14.67
			c3.84-4.17,10.33-4.44,14.5-0.6c0.01,0.01,0.02,0.02,0.03,0.03c0.68,0.62,16.52,15.56,13.63,37.23
			c-2.49,18.63-17.67,35.33-45.15,49.64c-1.47,0.77-3.1,1.17-4.76,1.16"/>
		<path id="Fill_33" d="M661.81,653c-11.59-0.11-22.85-3.84-32.21-10.68c-4.45-3.02-5.61-9.08-2.59-13.53
			c0.09-0.14,0.19-0.27,0.29-0.4c3.46-4.47,9.82-5.45,14.47-2.22c7.59,5.78,17.3,8.04,26.66,6.21c27.87-5.48,51.07-42.23,51.3-42.6
			c3.06-4.75,9.32-6.26,14.22-3.42c4.71,2.61,6.42,8.54,3.82,13.26c-0.08,0.14-0.15,0.27-0.24,0.4
			c-1.13,1.82-28.04,44.62-64.88,51.91C669.07,652.63,665.45,653,661.81,653"/>
		<path id="Fill_35" d="M721.07,611.4c-5.19,0.02-9.57-3.83-10.23-8.98l-2.1-17.45c-0.64-5.6,3.38-10.65,8.98-11.29
			c0.02,0,0.04,0,0.06-0.01c5.6-0.72,10.73,3.23,11.45,8.83c0,0.03,0.01,0.06,0.01,0.08l2.09,17.43c0.64,5.59-3.37,10.65-8.97,11.29
			c-0.02,0-0.05,0.01-0.07,0.01C721.89,611.38,721.48,611.4,721.07,611.4"/>
		<path id="Fill_37" class="st3" d="M583.12,632.57c-15.73,0.25-32.02,2.03-49.76,1c-38.48-2.24-76.54-17.21-97.16-51.3
			c-43.1-71.24,10.52-116.38,79.38-114.53c50.28,1.36,86.4,26.06,112.43,67.1c14.67,23.14,29.68,55.52,57.21,62.33
			c57.37,14.2,84.83,14.44,67.65,53.44c-17.07,38.76-40.48,48.4-108.51-0.96C623.61,634.61,603.86,632.25,583.12,632.57"/>
		<path id="Fill_39" d="M716.07,694.6c-9.78,0-20.74-2.88-33.49-8.79c-15.52-7.6-30.27-16.68-44.06-27.1
			c-18.43-13.41-35.61-15.26-51.42-15.26c-1.21,0-2.49,0.01-3.79,0.04c-5.09,0.08-10.15,0.32-15.5,0.58l-0.64,0.03
			c-7.18,0.35-14.59,0.72-22.36,0.72c-4.33,0-8.34-0.11-12.28-0.34c-47.99-2.82-85.64-22.98-106.01-56.77
			c-24.94-41.38-18.07-70.79-7.91-88.17c8.66-14,21.38-25.04,36.47-31.65c17.57-7.85,36.64-11.79,55.88-11.55
			c1.52,0,3.07,0.02,4.6,0.07c51.12,1.38,92.02,25.78,121.57,72.52c2.34,3.7,4.74,7.69,7.17,11.78
			c11.68,19.58,24.93,41.77,44.01,46.51c6.91,1.72,13.26,3.2,19.4,4.63l0.61,0.14c30.34,7.06,50.39,11.72,58.1,27.09
			c6.17,12.3,1.21,26.63-3.06,36.35c-6.49,14.81-16.43,32.48-35.81,37.7C723.79,694.12,719.94,694.61,716.07,694.6z M586.64,622.58
			c18.67,0,40.91,2.29,64.21,19.27c29.47,21.45,50.75,31.88,65.05,31.88c2.08,0.02,4.15-0.24,6.16-0.77
			c8.42-2.26,15.23-10.25,22.1-25.91c3.92-8.94,5.14-15.38,3.51-18.63c-3.31-6.58-22.2-10.98-44.06-16.09l-0.08-0.02l-1.03-0.25
			c-6.11-1.42-12.42-2.89-19.28-4.59c-27.58-6.84-43.18-33-56.94-56.08l-0.48-0.8c-2.21-3.7-4.3-7.19-6.42-10.53
			c-25.94-41.05-60.1-61.59-104.43-62.8c-1.23-0.03-2.48-0.05-3.71-0.05c-34.15,0-62.73,12.58-74.58,32.84
			c-10.49,17.93-7.81,41.06,7.75,66.87c22.55,37.38,65.64,45.3,89.32,46.69c3.52,0.2,7.14,0.3,11.08,0.3
			c7.48,0,14.84-0.36,21.33-0.68c5.53-0.27,11.24-0.55,16.83-0.64C584.07,622.59,585.27,622.58,586.64,622.58z"/>
		<path id="Fill_41" d="M712.07,702.16c-41.27,0-89.55-48.51-95.19-54.32c-3.96-4.06-3.87-10.57,0.19-14.53
			c0.05-0.04,0.09-0.09,0.14-0.13c4.23-3.95,10.83-3.81,14.88,0.32c14.14,14.57,56.83,51.52,83.86,47.66
			c7.87-1.12,13.69-5.75,18.31-14.58c2.73-5.1,9.03-7.08,14.19-4.46c5.08,2.55,7.14,8.73,4.59,13.82c-0.03,0.05-0.05,0.1-0.08,0.15
			c-9.73,18.54-23.87,24.16-34.03,25.6C716.65,702.01,714.35,702.17,712.07,702.16"/>
		<path id="Fill_43" class="st3" d="M696.42,487.17c13.35,8.51,28.05,16.03,42.37,26.73c31.1,23.23,54.77,56.99,53.14,97.27
			c-3.42,84.19-73.61,92.71-130.46,52.96c-41.5-29.02-58.13-69.94-57.17-119.1c0.55-27.72,5.96-63.46-13.4-84.48
			c-40.33-43.8-63.27-59.23-27.12-82.73c35.92-23.35,60.97-18.55,90.69,60.95C663.53,463,678.82,475.94,696.42,487.17"/>
		<path id="Fill_45" d="M726.9,698.39c-12.11-0.11-24.11-2.22-35.54-6.24c-12.77-4.43-24.87-10.6-35.96-18.34
			c-42.28-29.18-63.15-71.96-62.05-127.16c0.08-4.04,0.26-8.17,0.46-12.54l0.05-1.23c1.04-22.74,2.22-48.52-11.22-62.93
			c-4.94-5.3-9.52-10.08-13.96-14.7l-0.25-0.25c-21.61-22.53-35.88-37.4-33.85-54.45c1.64-13.63,13.78-22.89,22.76-28.66
			c10.08-6.46,23.51-13.88,38.14-13.88c4.4,0,8.77,0.69,12.95,2.05c20.89,6.8,38.11,30.71,55.83,77.52
			c7.85,20.75,20.87,32.18,38.01,42.95c4.33,2.73,8.73,5.29,13.38,8.01l0.62,0.36c10.11,5.67,19.89,11.9,29.32,18.64
			c38.84,28.66,59.34,66.12,57.71,105.48c-1.98,48.2-24.11,68.97-42.32,77.91C750.34,696.01,738.68,698.56,726.9,698.39z
			 M595.57,378.91c-7.1,0-15.59,3.33-26.73,10.48c-8.28,5.31-12.87,10.02-13.3,13.62c-0.88,7.31,12.54,21.3,28.08,37.5l0.11,0.12
			l0.97,1.01c4.28,4.47,8.71,9.08,13.44,14.17c19.41,20.82,18.01,51.2,16.79,78.01l-0.05,1.2c-0.19,4.2-0.37,8.16-0.44,12.04
			c-0.98,48.49,16.38,84.35,53.03,109.65c19.53,13.47,40.57,20.89,59.24,20.9c8.6,0.14,17.12-1.69,24.9-5.36
			c18.79-9.21,29.37-29.98,30.61-60.06c1.79-43.55-30.09-73.78-49.25-87.92c-8.81-6.27-17.94-12.07-27.37-17.37l-0.06-0.03l-0.5-0.3
			c-4.9-2.86-9.52-5.56-14.09-8.43c-17.93-11.29-35.96-25.55-46.44-53.24c-14.86-39.23-28.82-60.5-42.68-65.01
			C599.81,379.23,597.7,378.9,595.57,378.91z"/>
		<path id="Fill_47" d="M722.87,698.39c-5.76-0.01-10.42-4.7-10.41-10.46c0.01-5.52,4.32-10.07,9.83-10.39
			c19.1-1.07,39.96-21.84,48.52-48.3c5.7-17.63,13.41-63.17-38.13-105.19c-4.47-3.63-5.16-10.2-1.53-14.67s10.2-5.16,14.67-1.53
			c61.53,50.16,51.82,106.09,44.8,127.81c-11.25,34.78-39.49,61.16-67.16,62.71C723.26,698.37,723.06,698.39,722.87,698.39"/>
		<path id="Fill_49" class="st3" d="M921.6,541.09c-2.64,15.44-3.86,31.73-8.13,48.9c-9.27,37.27-31.07,71.81-68.6,85.76
			c-78.46,29.16-113.37-31.6-98.91-98.7c10.56-48.99,41.62-79.84,87.06-97.81c25.6-10.12,60.41-18.9,72.21-44.61
			c24.56-53.59,29.83-80.43,65.31-56.46c35.27,23.8,40.54,48.5-20.81,106.08C931.03,501.82,925.08,520.73,921.6,541.09"/>
		<path id="Fill_51" d="M805.78,698.38c-9.46,0.08-18.85-1.65-27.65-5.12c-6.86-2.76-13.22-6.65-18.8-11.51
			c-24.17-21-33.58-60.41-24.56-102.86c10.6-49.83,41.81-85.45,92.75-105.85c4.12-1.65,8.54-3.29,12.82-4.88
			c21.2-7.87,45.24-16.79,53.31-34.63c2.96-6.54,5.6-12.59,8.27-18.73c12.38-28.44,20.55-47.23,36.94-51.98
			c2.4-0.69,4.89-1.04,7.39-1.03c10.66,0,20.81,6.08,27.52,10.66c13.27,9.08,28.71,22.06,30.28,41.97
			c1.73,21.68-13.59,46.65-49.68,80.93c-15.99,15.22-21.49,31.51-24.83,51.31c-0.84,5.01-1.52,10.01-2.24,15.31l-0.08,0.63v0.05
			c-1.34,11.42-3.31,22.76-5.9,33.96c-11.42,46.49-37.9,79.7-74.56,93.51C833.71,695.31,819.82,698.1,805.78,698.38z M946.33,382.65
			c-0.58-0.01-1.16,0.07-1.73,0.22c-7.04,2.04-14.75,19.76-23.7,40.28v0.02c-2.58,5.93-5.35,12.28-8.39,19.01
			c-11.65,25.74-39.99,36.26-64.99,45.53l-1.12,0.42c-3.92,1.46-7.63,2.84-11.21,4.28c-44.74,17.92-70.96,47.64-80.15,90.85
			c-7.44,34.98-0.61,66.67,17.84,82.7c9.23,7.78,21.01,11.87,33.07,11.47c11.51-0.27,22.88-2.6,33.57-6.88
			c40.54-15.25,56.06-56.03,61.7-78.98c2.41-10.5,4.24-21.11,5.49-31.81c0.75-5.49,1.5-11.15,2.42-16.61
			c3.49-20.7,9.66-42.65,31.04-62.98c30.25-28.74,44.4-49.7,43.25-64.08c-0.68-8.65-7.25-16.78-21.28-26.38
			C955.37,385.1,949.92,382.65,946.33,382.65z"/>
		<path id="Fill_53" d="M814.79,687.04c-33.05,0-63.61-15.4-74.75-38.52c-2.53-5.22-0.39-11.51,4.8-14.1
			c5.13-2.53,11.33-0.42,13.86,4.71c0.02,0.05,0.05,0.1,0.07,0.15c8.4,17.42,35.51,28.72,63.36,26.36
			c18.46-1.59,63.4-12.26,82.07-76.9c1.58-5.55,7.36-8.76,12.91-7.18c0.01,0,0.01,0,0.02,0.01c5.55,1.68,8.71,7.52,7.08,13.08
			c-22.29,77.16-77.58,90.05-100.31,92C820.85,686.91,817.82,687.04,814.79,687.04"/>
		<path id="Fill_55" class="st3" d="M917.05,630.31l-1.36,17.08c-0.18,3.38-0.14,6.76,0.12,10.14c0.36,10.91-7.71,20.28-18.56,21.53
			l-29.34,3.99c-7.11,1-14.26-1.51-19.18-6.73l-22.61-24.87"/>
		<path id="Fill_57" d="M865.44,694.6c-9.17,0.04-17.94-3.74-24.2-10.44l-22.7-25.05l16.18-13.55l22.64,24.97
			c2.47,2.62,6.06,3.86,9.62,3.34l29.37-3.99c5.48-0.66,9.55-5.39,9.39-10.9c-0.3-3.83-0.33-7.67-0.1-11.5l1.36-17.16l21.41,1.57
			l-1.36,17.16c-0.15,2.76-0.11,5.53,0.11,8.29c0.91,16.61-11.27,31.05-27.8,32.95l-29.37,3.99c-1.52,0.21-3.04,0.31-4.57,0.31"/>
		<path id="Fill_59" class="st3" d="M744.6,606.87l-35.25-97.2c0,0-14.62-29.09,9.04-46.69c9.29-6.91,30.18,0.5,45.27,3.38
			c26.38,5.02,51.55,28.27,71.24,46.49c27.1,25.06,69.05,68.41,81.93,107.01c0,0,11.24,50.67-125.03,26.69
			C770.08,642.75,752.08,627.6,744.6,606.87"/>
		<path id="Fill_61" d="M855.06,664.35c-21.9-0.35-43.73-2.56-65.26-6.61c-25.58-4.53-46.8-22.38-55.63-46.82l-35.35-97.6
			c-1.86-3.93-3.23-8.08-4.1-12.34c-1.1-5.15-1.45-10.43-1.04-15.67c0.44-5.78,2.02-11.41,4.65-16.57
			c3.13-5.93,7.57-11.07,12.99-15.02c5.11-3.52,11.24-5.25,17.43-4.93c8.93,0.42,17.79,1.83,26.4,4.23h0.02l0.1,0.02
			c3.5,0.83,6.81,1.6,9.92,2.2c29.61,5.64,55.89,29.99,77.01,49.55c31.66,29.31,72.17,72.6,85.44,112.4
			c0.12,0.36,0.21,0.71,0.28,1.04c1.68,10.18-1.7,20.54-9.06,27.76c-6.91,6.69-15.46,11.44-24.79,13.77
			C881.35,663.07,868.22,664.61,855.06,664.35z M728.26,469.58c-1.52-0.14-3.05,0.16-4.4,0.88c-16.15,12.03-7.07,31.91-5.99,34.14
			c0.19,0.39,0.35,0.78,0.46,1.08l35.55,98.14c0,0,0,0,0,0.02c6.27,17.39,21.35,30.09,39.55,33.31c20.36,3.86,41,5.97,61.72,6.33
			c32.31,0,44.31-7.48,48.59-11.95c2.36-2.22,3.72-5.31,3.76-8.55c-12.82-37.33-55.33-80.49-79.54-102.89
			c-19.15-17.74-42.99-39.82-66.7-44.33c-3.47-0.66-7.26-1.56-10.92-2.42l-0.15-0.03C743.02,471.39,735.68,470.14,728.26,469.58z"/>
		<path id="Fill_63" d="M762.46,645.44c-2.41,0-4.75-0.81-6.64-2.3c-34.48-27.28-61.76-138.81-62.02-139.93
			c-1.28-5.64,2.26-11.25,7.9-12.54c0.02-0.01,0.05-0.01,0.07-0.02c5.68-1.3,11.34,2.2,12.72,7.86
			c8.48,36.37,33.22,111.35,54.63,128.29c4.51,3.54,5.29,10.07,1.75,14.57c-0.04,0.05-0.08,0.1-0.11,0.14
			C768.72,644.01,765.67,645.45,762.46,645.44"/>
		<path id="Fill_65" d="M885.22,694.6c-22.34,0-35.54-5.09-41.29-15.81c-6.33-11.81,0.54-23.36,1.35-24.63
			c2.89-4.81,9.13-6.36,13.93-3.48c0.2,0.12,0.39,0.24,0.58,0.38c4.8,3.45,6.13,10,3.07,15.05c-0.36,0.64-0.56,1.35-0.61,2.08
			c0.08,0,4.28,5.31,28.77,4.3c5.91-0.04,10.75,4.67,10.87,10.58c0.34,5.92-4.16,11.01-10.08,11.4
			C889.53,694.56,887.33,694.61,885.22,694.6"/>
		<path id="Fill_67" d="M848.07,675.69c-3.03,0-5.89-1.41-7.73-3.82l-8.52-11.27c-2.26-2.98-2.54-7.02-0.7-10.28
			c1.87-3.27,5.46-5.16,9.21-4.85l11.03,0.89c2.79,0.22,5.35,1.64,7.01,3.89c1.65,2.23,2.23,5.08,1.58,7.78l-2.51,10.39
			c-0.89,3.6-3.78,6.37-7.43,7.09C849.38,675.63,848.73,675.69,848.07,675.69"/>
		<path id="Fill_77" class="st3" d="M788.24,528.2l49.25,49.17"/>
		<path id="Fill_79" d="M834.78,588.71c-2.64,0.01-5.18-0.99-7.12-2.79l-51.41-48.03c-4-3.69-4.25-9.92-0.56-13.92
			c0.08-0.09,0.16-0.17,0.25-0.26c3.98-4,10.41-4.13,14.55-0.3l51.41,48.03c4,3.69,4.25,9.92,0.56,13.92
			c-0.08,0.09-0.16,0.17-0.25,0.26C840.25,587.61,837.57,588.73,834.78,588.71"/>
		<path id="Fill_81" d="M476.83,554.67c-5.53,0.11-10.17-4.13-10.56-9.64c-0.98-20.11,7.64-30.46,15.04-35.6
			c22.66-15.76,60.87-2.71,65.16-1.18c5.23,1.73,8.06,7.38,6.33,12.61c-0.05,0.14-0.09,0.27-0.14,0.4
			c-2.24,5.29-8.23,7.89-13.62,5.91c-8.11-2.89-33.89-9.34-45.31-1.39c-1.73,1.2-6.98,4.86-6.33,18.31
			c0.15,5.68-4.34,10.41-10.02,10.56c-0.02,0-0.03,0-0.05,0C477.17,554.66,477,554.67,476.83,554.67"/>
	</g>
</g>
</svg>
